<svg  xml:space="preserve" viewBox="105.56266000000001 109.87134 846.6556200000001 889.74242" y="0px" x="0px" xmlns:xlink="http://www.w3.org/1999/xlink" xmlns="http://www.w3.org/2000/svg" version="1.1" width="846.6556200000001" height="889.74242">
	<g fill="currentColor" id="leon">
		<g>
			<path d="M407.66,320.66l-1.43,0.62c-2.75,1.19-5.92,0.13-7.52-2.4c-9.2-14.59-25.54-15.78-39.46-18.47&#10;&#9;&#9;&#9;&#9;c-9.93-1.99-29.06,7.06-36.44,20.09c-5.01,8.84-3.12,25.67-1.13,35.72c0.61,3.09-1.3,6.13-4.34,6.96l-1.45,0.39&#10;&#9;&#9;&#9;&#9;c-3.36,0.91-6.78-1.2-7.47-4.61c-2.16-10.6-5.01-31.69,2.61-45.14c11.09-18.96,36.31-31.28,55.18-25.93&#10;&#9;&#9;&#9;&#9;c0.15,0.04,0.29,0.07,0.43,0.1c12.57,2.2,32.63,5.81,43.83,24.12C412.36,315.18,410.98,319.23,407.66,320.66z" class="st3"/>
			<path d="M533.27,253.13l-0.23,1.48c-0.48,3.12-3.28,5.42-6.43,5.16c-55.75-4.62-69.29,57.27-70.85,65.5&#10;&#9;&#9;&#9;&#9;c-0.04,0.25-0.08,0.5-0.12,0.75h-0.02c0,0.02,0,0.02,0,0.04l-0.47,2.83c-1.02,6.1-9.48,6.88-11.59,1.07l-0.98-2.7&#10;&#9;&#9;&#9;&#9;c-21.4-59.06-64.87-60.7-79.98-59.35c-3.03,0.27-5.79-1.72-6.45-4.68l-0.31-1.37c-0.79-3.56,1.73-7.02,5.36-7.3&#10;&#9;&#9;&#9;&#9;c11.39-0.88,35.27-0.26,57.6,16.04c6.27,4.57,13.52-4.49,7.5-9.39c-8.71-7.09-19.34-10.49-28.59-11.39&#10;&#9;&#9;&#9;&#9;c-3.01-0.29-5.31-2.77-5.41-5.79l-0.05-1.56c-0.11-3.62,2.98-6.53,6.59-6.18c17.46,1.69,43.12,11.71,53.51,38.16&#10;&#9;&#9;&#9;&#9;c1.72,4.39,7.6,5.1,10.41,1.32c15.69-21.08,38.58-31.97,65.19-29.53C531.39,246.55,533.79,249.75,533.27,253.13z" class="st3"/>
			<path d="M393.45,341.62l-1.41,0.61c-2.43,1.05-5.31,0.42-6.98-1.65c-4.47-5.55-12.45-6.76-20.28-8.11&#10;&#9;&#9;&#9;&#9;c-4.41-0.87-14.36,3.41-18.31,10.37c-1.96,3.45-1.74,10.57-0.78,16.59c0.49,3.06-1.36,6.01-4.36,6.82l-1.47,0.4&#10;&#9;&#9;&#9;&#9;c-3.43,0.93-6.92-1.29-7.5-4.79c-1.16-7.02-1.99-18.1,2.32-25.69c7.09-12.22,23.1-19.92,35.31-16.52&#10;&#9;&#9;&#9;&#9;c6.75,1.18,18.35,3.21,25.82,12.77C398.24,335.5,397.05,340.06,393.45,341.62z" class="st3"/>
		</g>
		<g>
			<path d="M304.79,401.46c-14.96,0-25.83-4.18-32.27-7.65c-3.77-2.03-4.66-7.03-1.86-10.27l0.08-0.1&#10;&#9;&#9;&#9;&#9;c2.05-2.36,5.45-3.01,8.19-1.52c5.52,2.99,16.18,7.07,31.78,5.73c3.47-0.3,6.6,2.12,7.18,5.56l0.03,0.16&#10;&#9;&#9;&#9;&#9;c0.64,3.86-2.16,7.45-6.06,7.78C309.41,401.37,307.05,401.46,304.79,401.46z" class="st3"/>
		</g>
		<g>
			<path d="M258.4,475.74l-0.04,0c-4.15-0.14-7.21-3.99-6.33-8.04c3.24-15,15.55-47.07,61.76-54.93&#10;&#9;&#9;&#9;&#9;c3.81-0.65,7.4,2.03,7.82,5.88l0.02,0.16c0.38,3.49-2.01,6.71-5.47,7.3c-39.08,6.63-48.66,32.78-50.99,44.34&#10;&#9;&#9;&#9;&#9;C264.52,473.63,261.64,475.85,258.4,475.74z" class="st3"/>
		</g>
		<g>
			<path d="M245.03,569.27c0.24-18.01,4.64-64.65,42.17-87.76c3.36-2.07,7.79-0.82,9.54,2.72l0.08,0.16&#10;&#9;&#9;&#9;&#9;c1.52,3.07,0.48,6.81-2.44,8.62c-31.52,19.53-35.45,60.83-35.76,76.43c-0.07,3.48-2.76,6.33-6.23,6.56l-0.21,0.01&#10;&#9;&#9;&#9;&#9;C248.28,576.29,244.98,573.18,245.03,569.27z" class="st3"/>
		</g>
		<g>
			<path d="M578.73,485.16c-3.07-6.15-16.44-8.94-20.08-8.94c-3.1,0-9.06,1.14-13.61,2.26&#10;&#9;&#9;&#9;&#9;c-6.23,1.57-13.97,3.51-13.97,10.22c-1.14,10.92,2.69,14.56,10.37,20.87c1.13,0.93,1.55,2.48,1.03,3.85l-0.3,0.8&#10;&#9;&#9;&#9;&#9;c-0.06,0.16-0.13,0.31-0.21,0.46c-15.99,29.36-37.41,43.69-71.47,47.88c-20.19,3.1-23.32-8.99-32.04-21.45&#10;&#9;&#9;&#9;&#9;c-0.62-0.89-0.77-2.03-0.4-3.06c3.64-10.08,8.53-20.7,16.05-25.41c19.66-12.29,18.9-25.29,18.75-26.73l-0.32-3&#10;&#9;&#9;&#9;&#9;c-0.18-1.73-1.65-3.05-3.39-3.05h-81.11c-2.79,0-4.4-3.17-2.75-5.42c20.15-27.65,31.72-47.77,39.11-67.05&#10;&#9;&#9;&#9;&#9;c0.05-0.15,0.1-0.31,0.15-0.47c4.59-18.28-4.03-40.18-32.23-37.78c-24.76,1.83-34.09,25.6-36.06,40.64&#10;&#9;&#9;&#9;&#9;c-0.26,1.97,1.2,3.76,3.19,3.87l6.79,0.4c1.75,0.11,3.29-1.13,3.55-2.86c1.17-7.67,5.87-27.24,23.54-28.55&#10;&#9;&#9;&#9;&#9;c16.53-1.6,20.96,8.81,17.98,21.33c0,0.05-0.02,0.11-0.04,0.17c-0.05,0.12-0.11,0.25-0.16,0.37c-2.61,6.07-5.61,12.3-8.99,18.65&#10;&#9;&#9;&#9;&#9;c-11.02,20.75-26.09,42.78-45.01,64.67c-25.31,27.56-1.02,64.45,24.62,82.39c1.26,0.88,1.76,2.5,1.24,3.94l-0.39,1.06&#10;&#9;&#9;&#9;&#9;c-0.17,0.48-0.24,0.99-0.18,1.5c0.57,5.62,4.28,32.79,44.27,50.76c12.35,5.38,22.8,7.33,31.89,7.33&#10;&#9;&#9;&#9;&#9;c19.86,0.14,31.48-9.08,47.76-13.16c17.51-3.61,31.81-16.73,37.36-22.45c1.37-1.41,1.25-3.69-0.25-4.97l-5.13-4.37&#10;&#9;&#9;&#9;&#9;c-1.36-1.15-3.38-1.07-4.63,0.2c-4.7,4.77-16.53,15.52-30.1,18.34c-5.92,1.22-11.53,3.52-16.95,5.77&#10;&#9;&#9;&#9;&#9;c-14.3,5.9-29.07,11.99-54.53,0.89c-29.49-12.87-35.01-32.32-35.97-37.43l0.65-1.8c9.68-0.95,26.04-3.53,32.91-14.59&#10;&#9;&#9;&#9;&#9;c1.27-2.05,4.25-2.05,5.65-0.09c7.69,10.7,18.43,17.49,36.81,14.86c38.58-4.75,63.87-21.82,81.97-55.29&#10;&#9;&#9;&#9;&#9;c0.08-0.14,0.14-0.28,0.2-0.43c0.92-2.36,2.36-4.43,4.2-6.07c1.83-1.65,4.04-2.87,6.49-3.53c2.97-0.8,5.66-1.75,7.28-2.83&#10;&#9;&#9;&#9;&#9;C578.17,503.93,581.36,490.38,578.73,485.16z M422.06,543.09c-1.48,4.55-2.87,8.83-4.05,11.07c-3.37,5.88-15.27,7.21-22.1,8.13&#10;&#9;&#9;&#9;&#9;c-0.68,0.09-1.37-0.03-1.99-0.34c-13.59-6.95-49.31-41.66-26.72-65.1c2.78-3.12,5.5-6.3,8.13-9.51c1.73-2.11,5.09-1.45,5.88,1.16&#10;&#9;&#9;&#9;&#9;c3.28,10.78,10.61,29.68,33.65,47.3c2.9,2.07,5.32,4.31,7.43,6.63C422.21,542.65,422.13,542.86,422.06,543.09z M428.98,524.25&#10;&#9;&#9;&#9;&#9;c-0.89,1.99-3.4,2.65-5.14,1.34c-0.36-0.27-0.72-0.54-1.09-0.8c-11.07-7.95-18.3-18.21-22.72-26.34&#10;&#9;&#9;&#9;&#9;c-1.23-2.28,0.41-5.05,3.01-5.05h44.25c3.33,0,4.71,4.29,1.99,6.2c-0.73,0.51-1.52,1.03-2.36,1.56&#10;&#9;&#9;&#9;&#9;C438.65,506.34,433.09,515.08,428.98,524.25z M565.15,495.03l-0.02,0.07c-0.36,1.03-1.19,1.82-2.24,2.13&#10;&#9;&#9;&#9;&#9;c-2.46,0.72-6.62,1.62-10.46,2.28c-0.99,0.17-2-0.1-2.76-0.75c-1.59-1.34-3.53-3.03-4.94-4.43c-0.19-0.29-0.25-0.93-0.27-1.62&#10;&#9;&#9;&#9;&#9;c4.16-1.34,11.92-2.95,14.19-2.95c0.96,0,2.59,0.37,4.23,0.87C564.77,491.2,565.79,493.16,565.15,495.03z" class="st3"/>
		</g>
		<g>
			<path d="M489.21,435.19l-0.03,0c-3.84-0.48-6.51-4.09-5.81-7.89c2.63-14.31,10.34-44.79,29.03-52.46&#10;&#9;&#9;&#9;&#9;c3.42-1.4,6.3-2.66,8.84-3.76c12.94-5.63,18.29-7.96,38.55-6.07c15.66,1.46,24.75,10.42,29.25,18.41&#10;&#9;&#9;&#9;&#9;c2.23,3.95-0.05,8.93-4.48,9.88l0,0c-2.95,0.64-5.92-0.78-7.38-3.42c-2.43-4.38-7.71-10.37-18.65-11.39&#10;&#9;&#9;&#9;&#9;c-16.79-1.56-19.99-0.17-31.89,5.01c-2.61,1.14-5.58,2.43-9.1,3.87c-10.6,4.35-17.86,26.12-20.85,42.31&#10;&#9;&#9;&#9;&#9;C496.04,433.2,492.78,435.63,489.21,435.19z" class="st3"/>
		</g>
		<g>
			<path d="M526.06,426.93l-5.23-3.1c-1.87-1.11-2.46-3.58-1.22-5.37c10.35-14.88,32.2-28.8,50.64-4.89&#10;&#9;&#9;&#9;&#9;c1.32,1.71,0.89,4.21-0.9,5.42l-4.98,3.37c-1.65,1.12-3.87,0.73-5.12-0.83c-3.98-4.99-7.95-7.44-11.85-7.36&#10;&#9;&#9;&#9;&#9;c-6.4,0.18-12.91,7.11-16.36,11.74C529.88,427.47,527.73,427.92,526.06,426.93z" class="st3"/>
		</g>
		<g>
			<path d="M410.47,403.26c0.78,1.54,1.05,2.08,1.83,3.61c-1.33,3.17-3.76,8.19-7.12,14.43&#10;&#9;&#9;&#9;&#9;c-0.3,0.57-0.81,1.01-1.41,1.24l-15.37,5.77c-2.06,0.77-4.11-1.15-3.47-3.26l7.2-23.67c0.41-1.35,1.8-2.14,3.16-1.81&#10;&#9;&#9;&#9;&#9;L410.47,403.26z" class="st3"/>
		</g>
		<g>
			<polygon points="301.99,564.11 301.97,564.11 298.93,560.41" class="st3"/>
		</g>
		<g>
			<path d="M329.73,608.91c-8.19,6.62-24.19,23.72-21.84,54.81c1.98,25.97,8.08,50.6,13.89,67.5&#10;&#9;&#9;&#9;&#9;c-0.24-0.02-0.49-0.02-0.74-0.02c-3.59,0-6.95,0.76-9.99,2.25c-0.11,0.06-0.22,0.11-0.32,0.17c-0.91-0.71-1.9-1.27-2.96-1.67&#10;&#9;&#9;&#9;&#9;c-6.54-20.23-11.78-46.02-13.39-67.2c-2.79-36.98,16.32-57.8,26.78-66.32c3.23-2.63,8.04-1.77,10.09,1.86&#10;&#9;&#9;&#9;&#9;c0.03,0.05,0.05,0.09,0.08,0.14C332.94,603.27,332.27,606.85,329.73,608.91z" class="st3"/>
			<path d="M278.42,667.77L278.42,667.77c-3.66,3.26-9.46,1.63-10.87-3.05c-5.18-17.2-5.77-50.61-1.39-68.62&#10;&#9;&#9;&#9;&#9;c4.14-17.11,15.12-30.48,21.81-37.36c2.78-2.86,7.42-2.64,9.95,0.44c0.04,0.05,0.08,0.1,0.12,0.15c2.16,2.63,2.01,6.44-0.35,8.88&#10;&#9;&#9;&#9;&#9;c-5.58,5.76-14.99,17.1-18.37,31.08c-4.59,18.96-2.29,50.11,1.06,61.55C281.1,663.34,280.36,666.03,278.42,667.77z" class="st3"/>
		</g>
		<g>
			<path d="M375.36,675.05c0,1.04-0.24,2.1-0.76,3.09c-9.63,18.45-15.3,37.44-17.34,56.6c-0.53-0.36-1.08-0.7-1.66-1.01&#10;&#9;&#9;&#9;&#9;c-3.09-1.68-6.71-2.53-10.73-2.53c-0.33,0-0.66,0.01-0.99,0.03c2.4-20.15,8.53-40.06,18.7-59.34c1.86-3.54,6.4-4.7,9.74-2.49&#10;&#9;&#9;&#9;&#9;C374.27,670.69,375.36,672.84,375.36,675.05z" class="st3"/>
			<path d="M360.02,785.39c2.24,10.55,5.48,21.06,9.68,31.47c-2.28,0.51-4.41,1.18-6.38,1.98&#10;&#9;&#9;&#9;&#9;c-2.26,0.92-4.31,1.95-6.15,3.11c-4.85-11.96-8.52-24.04-10.94-36.16c1.91,1.21,4.14,1.84,6.57,1.84&#10;&#9;&#9;&#9;&#9;C355.52,787.63,357.98,786.86,360.02,785.39z" class="st3"/>
			<path d="M383.65,845.25c-2.86,0.66-6.24,1.39-10.06,2.17c-0.33,0.06-0.66,0.13-0.97,0.2&#10;&#9;&#9;&#9;&#9;c0.22-0.34,0.46-0.71,0.71-1.1c1.03-1.6,2.17-2.73,3.48-3.45c0.48-0.26,1.86-0.83,5.02-1&#10;&#9;&#9;&#9;&#9;C382.42,843.13,383.03,844.19,383.65,845.25z" class="st3"/>
			<path d="M512.5,975.54c-1.28,2.09-3.51,3.26-5.8,3.26c-1.17,0-2.35-0.31-3.43-0.95&#10;&#9;&#9;&#9;&#9;c-36.8-21.99-68.24-47.3-93.27-74.62c3.81-0.04,7.37-1.43,10.34-4.01c0.88-0.77,1.61-1.56,2.22-2.35&#10;&#9;&#9;&#9;&#9;c23.76,25.28,53.3,48.75,87.6,69.31C513.4,968.12,514.47,972.31,512.5,975.54z" class="st3"/>
		</g>
		<g>
			<path d="M614.16,665.6c-0.55,0.4-1.05,0.76-1.52,1.09c-0.02,0.01-0.04,0.03-0.06,0.04&#10;&#9;&#9;&#9;&#9;c-0.33,0.24-0.64,0.45-0.93,0.65c-0.01,0-0.01,0.01-0.02,0.02c-1.4,0.98-2.21,1.51-2.29,1.56l1.55,2.37l4.66,7.14l0.47,0.71&#10;&#9;&#9;&#9;&#9;C615.87,674.87,615.19,670.26,614.16,665.6z" class="st3"/>
		</g>
		<g>
			<path d="M616.02,679.18l-6.68-10.22c0.12-0.08,1.9-1.26,4.82-3.37C615.19,670.26,615.87,674.87,616.02,679.18z" class="st3"/>
		</g>
		<g>
			<path d="M503.45,313.18l-0.44-0.26c-3.35-1.96-4.22-6.39-1.88-9.49c10.87-14.42,43.19-49.58,96.6-43.95&#10;&#9;&#9;&#9;&#9;c3.68,0.39,6.25,3.84,5.65,7.49l-0.1,0.59c-0.56,3.41-3.7,5.72-7.14,5.37c-47.39-4.94-75.18,26.19-84.22,38.52&#10;&#9;&#9;&#9;&#9;C509.96,314.12,506.3,314.85,503.45,313.18z" class="st3"/>
		</g>
		<g>
			<path d="M712.76,312.87l0.57-0.26c3.14-1.43,6.84-0.17,8.43,2.89c9.08,17.48,39.54,70.19,73.22,62.53&#10;&#9;&#9;&#9;&#9;c2.91-0.66,5.9,0.76,7.22,3.44l0.81,1.64c1.58,3.23,0.25,7.14-3,8.68c-10.19,4.84-32.05,13.33-50.48,12.94&#10;&#9;&#9;&#9;&#9;c-3.78-0.08-6.63-3.49-6.18-7.25l0.09-0.75c0.39-3.26,3.17-5.74,6.45-5.68c0.17,0,0.34,0.01,0.52,0.01&#10;&#9;&#9;&#9;&#9;c6.26,0.06,8.84-7.89,3.86-11.69c-21.96-16.76-38.16-45.18-44.58-57.67C708,318.42,709.41,314.4,712.76,312.87z" class="st3"/>
			<path d="M721.98,647.82L721.98,647.82c1.49,3.25,0.21,7.09-2.93,8.78c-21.29,11.43-56.22,37.16-69.5,47.11&#10;&#9;&#9;&#9;&#9;c-2.97,2.23-7.17,1.64-9.43-1.3l-0.01-0.01c-2.29-2.99-1.71-7.26,1.3-9.52c13.5-10.14,48.73-36.09,71.23-48.2&#10;&#9;&#9;&#9;&#9;C716.08,642.82,720.36,644.28,721.98,647.82z" class="st3"/>
			<path d="M813.22,565.46c0,7.88-7.24,14.05-16.49,14.05c-21.85-0.51-21.84-27.59,0-28.1&#10;&#9;&#9;&#9;&#9;C805.98,551.41,813.22,557.59,813.22,565.46z" class="st3"/>
			<path d="M616.76,680.3l-0.74-1.12c-0.15-4.32-0.83-8.92-1.86-13.58c18.03-13.08,80.01-62.17,71.23-113.2&#10;&#9;&#9;&#9;&#9;c-6.35-37.02-12.81-41.87-13.47-42.28c0.37,0.17,1.08,0.15,1.43-0.04l0.06-0.08l-11.2-7.6c1.8-2.67,6.54-6.81,12.81-5.46&#10;&#9;&#9;&#9;&#9;c7.06,1.53,16.12,8.96,23.72,53.17C710.45,618.17,620.59,677.79,616.76,680.3z" class="st3"/>
			<path d="M759.4,493.23c17.25,34.88,16.2,70.23-3.02,102.46c-0.95,1.59-3.04,2.05-4.6,1.07l-5.79-3.67&#10;&#9;&#9;&#9;&#9;c-1.52-0.96-2.01-2.97-1.06-4.49c29.08-46.56,4.63-98.5-25.19-127.09c-1.28-1.23-1.4-3.23-0.24-4.57l4.56-5.25&#10;&#9;&#9;&#9;&#9;c1.24-1.43,3.41-1.53,4.77-0.22C734.61,457.01,748.88,471.99,759.4,493.23z" class="st3"/>
			<path d="M802.82,493.84l-6.86,1.2c-1.72,0.3-3.38-0.78-3.78-2.48c-3.36-14.29-20.54-74.28-72.6-75.94&#10;&#9;&#9;&#9;&#9;c-55.05-1.75-79.33-18.67-86.87-25.4c-1.51-1.35-1.47-3.72,0.1-5.01l0.62-0.51h0c-3.52,1.04-5.86-3.59-2.93-5.8l15.19-11.48&#10;&#9;&#9;&#9;&#9;c0.23-0.17,23.12-17.86,13.74-31.7c-9.29-14.23-30.38-13.04-40.34-0.56c-1.06,1.32-2.92,1.67-4.35,0.77l-5.91-3.72&#10;&#9;&#9;&#9;&#9;c-1.63-1.03-2.06-3.24-0.9-4.78c15.2-20.11,48.22-21.45,62.7,0.68c5,7.37,5.61,14.96,3.77,22.07c-0.72,2.77,2.27,5.02,4.8,3.66&#10;&#9;&#9;&#9;&#9;c3.35-1.8,6.28-3.67,8.38-5.53c4.64-4.08,2.65-10.76-1.16-21.27c-1.53-4.22-3.12-8.57-3.81-12.73&#10;&#9;&#9;&#9;&#9;c-1.35-8.07-15.63-17.4-44.54-20.03c-21.32-1.97-37.68,25.32-42.43,34.24c-0.82,1.54-2.7,2.16-4.29,1.43l-6.32-2.91&#10;&#9;&#9;&#9;&#9;c-1.72-0.79-2.43-2.85-1.55-4.52c5.6-10.65,25.8-44.42,55.83-41.72c32.7,2.98,53.89,14.67,56.66,31.29&#10;&#9;&#9;&#9;&#9;c0.5,2.92,1.8,6.52,3.19,10.33c3.91,10.78,9.29,25.56-2.61,36.05c-12.54,11.07-41.58,19.85-44.85,20.82l-1.33,0.39&#10;&#9;&#9;&#9;&#9;c-2.77,0.82-3.24,4.54-0.75,6.01c10.87,6.41,32.47,15.17,70.39,16.39c29.14,0.93,53.33,17.01,69.97,46.5&#10;&#9;&#9;&#9;&#9;c9.5,16.81,13.92,33.32,15.49,40.26C805.89,491.69,804.68,493.51,802.82,493.84z" class="st3"/>
		</g>
		<g>
			<path d="M716.44,208.47c-1.12-2.1-3.6-3.13-5.86-2.38c-0.68,0.23-1.38,0.45-2.1,0.66&#10;&#9;&#9;&#9;&#9;c-9.63,2.92-22.61,4.86-34.79,3.75c-4.25-0.38-8.4-1.14-12.27-2.36c-1.88-0.58-3.69-1.28-5.42-2.09&#10;&#9;&#9;&#9;&#9;c-0.06-0.02-0.12-0.05-0.18-0.07c-15.18-6.57-23.93-18.84-30.41-34.26c-0.55-1.3-1.08-2.64-1.6-3.99&#10;&#9;&#9;&#9;&#9;c-1.3-3.41-5.71-4.28-8.21-1.63l-1.94,2.07c-0.02,0.02-0.52,0.56-1.51,1.41c-15.07,12.91-32.4,17.4-49.89,15.34&#10;&#9;&#9;&#9;&#9;c-4.16-0.49-8.32-1.34-12.47-2.55c-12.87-3.73-25.54-10.78-37.18-20.4c-0.06-0.05-0.55-0.45-1.31-1.05&#10;&#9;&#9;&#9;&#9;c-0.51-0.42-1.15-0.93-1.85-1.49c-3.16-2.54-7.77-0.38-8.02,3.49c-0.02,0.2-0.02,0.42-0.01,0.63c0.87,16.36,2.44,45.93,3.06,57.7&#10;&#9;&#9;&#9;&#9;c0.14,2.53,2.15,4.53,4.67,4.66l1.02,0.06h1.01c7.44-0.1,119.14,9.89,178.33,47.25c3.04,1.92,7.05,0.16,7.58-3.4&#10;&#9;&#9;&#9;&#9;c2.53-16.79,7.65-40.03,22.91-52.7c0.01,0,0.02-0.01,0.03-0.02c0.25-0.19,0.5-0.36,0.75-0.54L716.44,208.47z M693.65,231.24&#10;&#9;&#9;&#9;&#9;c-2.82,6.39-4.89,12.85-6.37,18.43c-0.81,3.03-4.18,4.58-6.97,3.16c-55.59-28.3-130.99-37.18-158.42-39.57&#10;&#9;&#9;&#9;&#9;c-2.46-0.22-4.38-2.2-4.51-4.67l-0.96-18.13c-0.21-3.9,3.97-6.46,7.38-4.55c40.11,22.52,71.41,10.91,87.59,0.9&#10;&#9;&#9;&#9;&#9;c2.44-1.52,5.6-0.66,6.98,1.87c14.85,27.14,42.74,37.84,70.36,35.6C692.5,223.98,695.17,227.78,693.65,231.24z" class="st3"/>
		</g>
		<g>
			<path d="M502.15,124.44c-26.9,0.96-27.56,36.64-0.76,38.48h0.04c3.44,0.17,6.83-0.56,9.87-2&#10;&#9;&#9;&#9;&#9;c6.63-3.12,11.56-9.57,11.49-17.23C522.79,133.09,513.52,124.44,502.15,124.44z M495.06,143.69c0.4-7.54,13.8-7.52,14.19,0&#10;&#9;&#9;&#9;&#9;C508.86,151.21,495.46,151.22,495.06,143.69z" class="st3"/>
		</g>
		<g>
			<path d="M727.42,179.89c-14.31-0.25-24.94,14.2-18.96,26.82c0.01,0.01,0.01,0.03,0.02,0.04&#10;&#9;&#9;&#9;&#9;c2.53,5.33,6.75,8.72,11.52,10.37c12.13,4.21,27.79-2.89,28.06-17.97C748.06,188.52,738.8,179.89,727.42,179.89z M727.42,204.85&#10;&#9;&#9;&#9;&#9;c-9.35-0.33-9.35-11.08,0-11.41C736.79,193.77,736.79,204.52,727.42,204.85z" class="st3"/>
		</g>
		<g>
			<path d="M622.06,127.92c-12.14,0-22.02,9.87-22.02,22.02c-0.02,8.61,4.99,16.02,12.11,19.64&#10;&#9;&#9;&#9;&#9;c3,1.53,6.38,2.39,9.91,2.38c1.13,0.01,2.25-0.07,3.35-0.24c10.4-1.58,18.72-10.76,18.67-21.78&#10;&#9;&#9;&#9;&#9;C644.08,137.79,634.21,127.92,622.06,127.92z M622.06,158.41c-11.2-0.37-11.2-16.59,0-16.95&#10;&#9;&#9;&#9;&#9;C633.26,141.81,633.26,158.06,622.06,158.41z" class="st3"/>
		</g>
		<g>
			<path d="M550.73,180.01l1.15-1.56c1.87-2.54,5.62-2.7,7.7-0.32l1.72,1.97c3.02,3.45,0.12,8.8-4.42,8.15l-2.87-0.41&#10;&#9;&#9;&#9;&#9;C550.31,187.31,548.51,183.02,550.73,180.01z" class="st3"/>
		</g>
		<g>
			<path d="M664.01,202.11l3.68-1.73c3.28-1.54,7.05,0.85,7.05,4.47v2.6c0,3.19-2.97,5.54-6.08,4.81l-3.68-0.87&#10;&#9;&#9;&#9;&#9;C660.43,210.33,659.77,204.11,664.01,202.11z" class="st3"/>
		</g>
		<g>
			<path d="M569.39,162.41c0,6.12-4.97,11.09-11.09,11.09c-14.68-0.51-14.68-21.68,0-22.18&#10;&#9;&#9;&#9;&#9;C564.42,151.32,569.39,156.28,569.39,162.41z" class="st3"/>
		</g>
		<g>
			<path d="M690.69,185.97c0,6.12-4.97,11.09-11.09,11.09c-14.68-0.51-14.68-21.68,0-22.18&#10;&#9;&#9;&#9;&#9;C685.72,174.88,690.69,179.85,690.69,185.97z" class="st3"/>
		</g>
		<path d="M475.61,656.04l-6.36-4.3c-1.37-0.93-3.25-0.53-4.11,0.88c-15.18,24.97-24.29,51.98-25.61,78.72&#10;&#9;&#9;&#9;c2.96,0.34,5.51,0.95,7.71,1.86c2.35,0.97,4.38,2.33,6.04,4.02c0.45-20.4,5.69-39.58,11.87-54.77&#10;&#9;&#9;&#9;c3.48-8.59,7.27-15.91,10.66-21.45c0.21-0.36,0.43-0.71,0.64-1.05C477.27,658.64,476.89,656.91,475.61,656.04z M610.89,671.33&#10;&#9;&#9;&#9;c-0.85-1.29-0.52-3.03,0.74-3.93c0.01-0.01,0.01-0.02,0.02-0.02c0.29-0.2,0.6-0.41,0.93-0.65c0.02-0.01,0.04-0.03,0.06-0.04&#10;&#9;&#9;&#9;c0.91-0.69,1.36-1.85,1.11-2.97c-0.6-2.62-1.31-5.25-2.05-7.83c-0.24-0.83-0.09-1.72,0.39-2.43&#10;&#9;&#9;&#9;c15.36-22.46,20.45-39.22,15.52-50.79c-6.58-15.44-14.42-16.68-19.85-15.01c-13.8,4.27-19.72,34.55-17.98,43.24&#10;&#9;&#9;&#9;c0.93,4.75,4.03,13.26,6.15,19.82c0.28,0.88,0.13,1.84-0.42,2.58c-13.85,18.6-32.93,39.4-51.25,57.2&#10;&#9;&#9;&#9;c-1.7,1.65-4.55,0.68-4.89-1.66c-2.6-17.39-4.78-25.04-7.41-35.8c-0.53-2.17-3.22-2.96-4.83-1.41&#10;&#9;&#9;&#9;c-19.92,19.19-32.41,40.02-39.08,61.18c2.02,0.69,3.82,1.54,5.37,2.56c2.07,1.35,3.75,2.93,5,4.7c0.43-1.61,1.11-3.04,2.06-4.29&#10;&#9;&#9;&#9;c-1.68-2.07-2.59-4.73-2.59-7.66c0-3.44,1.39-6.58,3.9-8.85c2.13-1.93,4.73-3.03,7.55-3.21c2.84-5.36,6.16-10.53,10-15.46&#10;&#9;&#9;&#9;c1.54-1.98,4.7-1.2,5.15,1.27c1.86,10.01,3.4,20.94,2.81,26.85l-0.84,8.35c2.03-1.64,4.32-2.97,6.87-3.96&#10;&#9;&#9;&#9;c2.75-1.07,5.72-1.72,8.88-1.91c10.36-9.84,40.17-39.52,54.78-57.56c1.6-1.98,4.79-1.08,5.12,1.45c0.46,3.55,0.56,6.82,0.11,9.53&#10;&#9;&#9;&#9;c-1.54,10.41-6.96,22.05-9.15,32.94c1.99-1.31,4.33-1.99,6.89-1.99c2.61,0,4.99,0.69,7.01,2.02c0.82-3.19,1.94-6.66,3.09-10.22&#10;&#9;&#9;&#9;c2.59-8.31,6.09-17.9,5.98-27.34c-0.01-0.55-0.18-1.1-0.49-1.56L610.89,671.33z M603.96,631.72c-0.4-1.36-0.71-2.53-0.9-3.47&#10;&#9;&#9;&#9;c-0.86-4.31,2.22-16.71,5.59-23.42c1.02-2.04,3.93-2.18,5.05-0.19c4.3,7.64,1.97,16.09-4.4,27.65&#10;&#9;&#9;&#9;C608.05,634.55,604.7,634.18,603.96,631.72z" class="st3"/>
		<g>
			<path d="M478.79,731.17c-0.62-0.04-1.26-0.05-1.9-0.05c-2.81,0-5.42,0.31-7.81,0.93c-0.18-0.87-0.36-1.74-0.53-2.62&#10;&#9;&#9;&#9;&#9;c-3.43-17.71-3.9-34.26-3.4-46.98c0.32-8.55,1.09-15.37,1.69-19.67c0.39-2.74,3-4.59,5.71-4.06h0.02&#10;&#9;&#9;&#9;&#9;c1.41,0.27,2.56,1.13,3.24,2.28c0.54,0.91,0.79,2.01,0.63,3.14c-1.37,10.07-3.82,35.67,1.67,63.74&#10;&#9;&#9;&#9;&#9;C478.33,728.99,478.55,730.08,478.79,731.17z" class="st3"/>
		</g>
	</g>
	<g fill="currentColor" id="aula-magica-texto">
		<g>
			<path d="M268.14,758.3v10.76c0,1.43-0.14,2.57-0.42,3.43c-0.28,0.86-0.8,1.63-1.55,2.32&#10;&#9;&#9;&#9;&#9;c-0.75,0.69-1.72,1.35-2.89,1.99c-3.4,1.84-6.67,3.18-9.81,4.02c-3.14,0.84-6.56,1.26-10.27,1.26c-4.31,0-8.25-0.66-11.8-1.99&#10;&#9;&#9;&#9;&#9;c-3.55-1.33-6.58-3.26-9.08-5.78c-2.5-2.53-4.42-5.59-5.76-9.19c-1.34-3.6-2.01-7.62-2.01-12.06c0-4.37,0.65-8.36,1.95-11.99&#10;&#9;&#9;&#9;&#9;c1.3-3.63,3.22-6.7,5.74-9.23c2.53-2.53,5.61-4.46,9.23-5.8c3.62-1.34,7.74-2.01,12.33-2.01c3.78,0,7.12,0.5,10.03,1.51&#10;&#9;&#9;&#9;&#9;c2.91,1.01,5.27,2.28,7.09,3.81c1.81,1.53,3.18,3.15,4.1,4.86c0.92,1.71,1.38,3.23,1.38,4.56c0,1.43-0.53,2.65-1.59,3.66&#10;&#9;&#9;&#9;&#9;c-1.06,1.01-2.33,1.51-3.81,1.51c-0.82,0-1.6-0.19-2.36-0.57c-0.75-0.38-1.39-0.92-1.9-1.61c-1.4-2.2-2.59-3.86-3.56-4.98&#10;&#9;&#9;&#9;&#9;c-0.97-1.12-2.28-2.07-3.93-2.83c-1.65-0.77-3.75-1.15-6.3-1.15c-2.63,0-4.98,0.45-7.05,1.36c-2.07,0.91-3.84,2.22-5.3,3.95&#10;&#9;&#9;&#9;&#9;c-1.47,1.72-2.59,3.84-3.37,6.34c-0.78,2.5-1.17,5.27-1.17,8.31c0,6.59,1.51,11.66,4.54,15.21c3.03,3.55,7.24,5.32,12.66,5.32&#10;&#9;&#9;&#9;&#9;c2.63,0,5.1-0.34,7.41-1.03s4.65-1.67,7.03-2.95v-9.12h-8.81c-2.12,0-3.72-0.32-4.81-0.96c-1.09-0.64-1.63-1.72-1.63-3.26&#10;&#9;&#9;&#9;&#9;c0-1.25,0.45-2.28,1.36-3.1c0.91-0.82,2.14-1.23,3.7-1.23h12.91c1.58,0,2.92,0.14,4.02,0.42c1.1,0.28,1.99,0.91,2.66,1.88&#10;&#9;&#9;&#9;&#9;C267.8,754.9,268.14,756.36,268.14,758.3z" class="st3"/>
			<path d="M283.53,734.71c-1.46,0-2.7-0.45-3.73-1.34c-1.04-0.89-1.55-2.16-1.55-3.79c0-1.48,0.53-2.7,1.59-3.66&#10;&#9;&#9;&#9;&#9;c1.06-0.96,2.29-1.44,3.7-1.44c1.35,0,2.55,0.43,3.6,1.3c1.05,0.87,1.57,2.13,1.57,3.79c0,1.61-0.51,2.87-1.53,3.77&#10;&#9;&#9;&#9;&#9;C286.15,734.25,284.94,734.71,283.53,734.71z M288.7,745.51v30.22c0,2.09-0.5,3.68-1.49,4.75c-1,1.07-2.26,1.61-3.79,1.61&#10;&#9;&#9;&#9;&#9;c-1.53,0-2.78-0.55-3.73-1.65c-0.96-1.1-1.44-2.67-1.44-4.71v-29.91c0-2.07,0.48-3.63,1.44-4.67c0.96-1.05,2.2-1.57,3.73-1.57&#10;&#9;&#9;&#9;&#9;c1.53,0,2.8,0.52,3.79,1.57C288.2,742.19,288.7,743.64,288.7,745.51z" class="st3"/>
			<path d="M334.28,761.59v13.9c0,2.2-0.5,3.84-1.49,4.94c-1,1.1-2.31,1.65-3.95,1.65c-1.58,0-2.87-0.55-3.85-1.65&#10;&#9;&#9;&#9;&#9;c-0.98-1.1-1.48-2.74-1.48-4.94v-16.66c0-2.63-0.09-4.67-0.27-6.13c-0.18-1.45-0.66-2.65-1.46-3.58c-0.79-0.93-2.04-1.4-3.75-1.4&#10;&#9;&#9;&#9;&#9;c-3.42,0-5.68,1.18-6.76,3.52c-1.09,2.35-1.63,5.72-1.63,10.11v14.13c0,2.17-0.49,3.81-1.47,4.92c-0.98,1.11-2.28,1.67-3.89,1.67&#10;&#9;&#9;&#9;&#9;c-1.58,0-2.88-0.56-3.89-1.67c-1.01-1.11-1.51-2.75-1.51-4.92v-29.91c0-1.97,0.45-3.46,1.36-4.48c0.91-1.02,2.1-1.53,3.58-1.53&#10;&#9;&#9;&#9;&#9;c1.43,0,2.62,0.48,3.58,1.44c0.96,0.96,1.44,2.28,1.44,3.96v1c1.81-2.17,3.75-3.77,5.82-4.79c2.07-1.02,4.37-1.53,6.89-1.53&#10;&#9;&#9;&#9;&#9;c2.63,0,4.89,0.52,6.78,1.57c1.89,1.05,3.45,2.63,4.67,4.75c1.76-2.14,3.65-3.73,5.67-4.77c2.02-1.03,4.25-1.55,6.7-1.55&#10;&#9;&#9;&#9;&#9;c2.86,0,5.32,0.56,7.39,1.69c2.07,1.12,3.61,2.73,4.64,4.83c0.89,1.89,1.34,4.86,1.34,8.92v20.41c0,2.2-0.5,3.84-1.49,4.94&#10;&#9;&#9;&#9;&#9;c-1,1.1-2.31,1.65-3.95,1.65c-1.58,0-2.88-0.56-3.89-1.67c-1.01-1.11-1.51-2.75-1.51-4.92v-17.58c0-2.25-0.09-4.05-0.29-5.4&#10;&#9;&#9;&#9;&#9;c-0.19-1.35-0.71-2.49-1.55-3.41c-0.84-0.92-2.12-1.38-3.83-1.38c-1.38,0-2.69,0.41-3.93,1.23c-1.24,0.82-2.2,1.92-2.89,3.29&#10;&#9;&#9;&#9;&#9;C334.66,754.01,334.28,757.12,334.28,761.59z" class="st3"/>
			<path d="M378.4,745.35v1.26c1.84-2.43,3.85-4.21,6.03-5.34c2.18-1.14,4.69-1.7,7.53-1.7c2.76,0,5.22,0.6,7.39,1.8&#10;&#9;&#9;&#9;&#9;c2.17,1.2,3.79,2.9,4.86,5.09c0.69,1.28,1.14,2.66,1.34,4.14c0.2,1.48,0.31,3.37,0.31,5.67v19.46c0,2.09-0.48,3.68-1.44,4.75&#10;&#9;&#9;&#9;&#9;c-0.96,1.07-2.2,1.61-3.73,1.61c-1.56,0-2.82-0.55-3.79-1.65c-0.97-1.1-1.46-2.67-1.46-4.71V758.3c0-3.45-0.48-6.08-1.44-7.91&#10;&#9;&#9;&#9;&#9;c-0.96-1.83-2.87-2.74-5.73-2.74c-1.86,0-3.56,0.56-5.09,1.67c-1.53,1.11-2.66,2.64-3.37,4.58c-0.51,1.56-0.77,4.47-0.77,8.73&#10;&#9;&#9;&#9;&#9;v13.1c0,2.12-0.49,3.71-1.47,4.77c-0.98,1.06-2.25,1.59-3.81,1.59c-1.51,0-2.75-0.55-3.72-1.65c-0.97-1.1-1.46-2.67-1.46-4.71&#10;&#9;&#9;&#9;&#9;v-30.22c0-1.99,0.43-3.48,1.3-4.46c0.87-0.98,2.05-1.47,3.56-1.47c0.92,0,1.75,0.22,2.49,0.65c0.74,0.43,1.33,1.09,1.78,1.95&#10;&#9;&#9;&#9;&#9;C378.18,743.04,378.4,744.1,378.4,745.35z" class="st3"/>
			<path d="M442.71,776.19c-2.53,1.97-4.97,3.44-7.33,4.42c-2.36,0.98-5.01,1.47-7.95,1.47c-2.68,0-5.04-0.53-7.07-1.59&#10;&#9;&#9;&#9;&#9;c-2.03-1.06-3.6-2.5-4.69-4.31c-1.1-1.81-1.65-3.78-1.65-5.9c0-2.86,0.91-5.3,2.72-7.32c1.81-2.02,4.3-3.37,7.47-4.06&#10;&#9;&#9;&#9;&#9;c0.66-0.15,2.31-0.5,4.94-1.03c2.63-0.54,4.88-1.03,6.76-1.47c1.88-0.45,3.91-0.99,6.11-1.63c-0.13-2.76-0.68-4.78-1.67-6.07&#10;&#9;&#9;&#9;&#9;c-0.98-1.29-3.02-1.93-6.11-1.93c-2.66,0-4.65,0.37-5.99,1.11c-1.34,0.74-2.49,1.85-3.45,3.33c-0.96,1.48-1.64,2.46-2.03,2.93&#10;&#9;&#9;&#9;&#9;c-0.4,0.47-1.24,0.71-2.55,0.71c-1.17,0-2.19-0.38-3.05-1.13c-0.86-0.75-1.28-1.72-1.28-2.89c0-1.84,0.65-3.63,1.95-5.36&#10;&#9;&#9;&#9;&#9;c1.3-1.74,3.33-3.17,6.09-4.29c2.76-1.12,6.19-1.69,10.3-1.69c4.6,0,8.21,0.54,10.84,1.63c2.63,1.09,4.49,2.8,5.57,5.15&#10;&#9;&#9;&#9;&#9;c1.08,2.35,1.63,5.46,1.63,9.35c0,2.45-0.01,4.53-0.02,6.24c-0.01,1.71-0.03,3.61-0.06,5.71c0,1.97,0.33,4.02,0.98,6.15&#10;&#9;&#9;&#9;&#9;c0.65,2.13,0.98,3.5,0.98,4.12c0,1.07-0.5,2.05-1.51,2.93c-1.01,0.88-2.15,1.32-3.43,1.32c-1.07,0-2.13-0.5-3.18-1.51&#10;&#9;&#9;&#9;&#9;C445,779.56,443.89,778.1,442.71,776.19z M442.02,761.06c-1.53,0.56-3.76,1.16-6.68,1.78c-2.92,0.63-4.95,1.09-6.07,1.38&#10;&#9;&#9;&#9;&#9;c-1.12,0.29-2.2,0.87-3.22,1.72c-1.02,0.86-1.53,2.05-1.53,3.58c0,1.58,0.6,2.93,1.8,4.04c1.2,1.11,2.77,1.67,4.71,1.67&#10;&#9;&#9;&#9;&#9;c2.07,0,3.98-0.45,5.73-1.36c1.75-0.91,3.03-2.07,3.85-3.5c0.94-1.58,1.42-4.19,1.42-7.81V761.06z" class="st3"/>
			<path d="M496.56,768.41c0,2.89-0.7,5.36-2.11,7.41c-1.4,2.06-3.48,3.61-6.22,4.67c-2.74,1.06-6.08,1.59-10.01,1.59&#10;&#9;&#9;&#9;&#9;c-3.75,0-6.97-0.57-9.65-1.72c-2.68-1.15-4.66-2.59-5.94-4.31c-1.28-1.72-1.92-3.45-1.92-5.19c0-1.15,0.41-2.13,1.23-2.95&#10;&#9;&#9;&#9;&#9;c0.82-0.82,1.85-1.23,3.1-1.23c1.1,0,1.94,0.27,2.53,0.8s1.15,1.29,1.69,2.26c1.07,1.86,2.36,3.26,3.85,4.17&#10;&#9;&#9;&#9;&#9;c1.49,0.92,3.53,1.38,6.11,1.38c2.09,0,3.81-0.47,5.15-1.4c1.34-0.93,2.01-2,2.01-3.2c0-1.84-0.7-3.18-2.09-4.02&#10;&#9;&#9;&#9;&#9;c-1.39-0.84-3.68-1.65-6.87-2.41c-3.6-0.89-6.53-1.83-8.79-2.81c-2.26-0.98-4.07-2.28-5.42-3.89c-1.35-1.61-2.03-3.59-2.03-5.94&#10;&#9;&#9;&#9;&#9;c0-2.09,0.63-4.07,1.88-5.94c1.25-1.86,3.1-3.35,5.53-4.46c2.44-1.11,5.38-1.67,8.83-1.67c2.71,0,5.14,0.28,7.3,0.84&#10;&#9;&#9;&#9;&#9;c2.16,0.56,3.96,1.32,5.4,2.26c1.44,0.94,2.54,1.99,3.29,3.14c0.75,1.15,1.13,2.27,1.13,3.37c0,1.2-0.4,2.18-1.21,2.95&#10;&#9;&#9;&#9;&#9;c-0.8,0.77-1.95,1.15-3.43,1.15c-1.07,0-1.99-0.31-2.74-0.92c-0.75-0.61-1.61-1.53-2.58-2.76c-0.79-1.02-1.72-1.84-2.8-2.45&#10;&#9;&#9;&#9;&#9;c-1.07-0.61-2.53-0.92-4.37-0.92c-1.89,0-3.46,0.4-4.71,1.21c-1.25,0.8-1.88,1.81-1.88,3.01c0,1.1,0.46,2,1.38,2.7&#10;&#9;&#9;&#9;&#9;c0.92,0.7,2.16,1.28,3.71,1.74s3.7,1.02,6.43,1.69c3.24,0.79,5.89,1.74,7.95,2.83c2.05,1.1,3.61,2.39,4.67,3.89&#10;&#9;&#9;&#9;&#9;C496.03,764.79,496.56,766.5,496.56,768.41z" class="st3"/>
			<path d="M510.7,734.71c-1.46,0-2.7-0.45-3.73-1.34c-1.04-0.89-1.55-2.16-1.55-3.79c0-1.48,0.53-2.7,1.59-3.66&#10;&#9;&#9;&#9;&#9;c1.06-0.96,2.29-1.44,3.7-1.44c1.35,0,2.55,0.43,3.6,1.3c1.05,0.87,1.57,2.13,1.57,3.79c0,1.61-0.51,2.87-1.53,3.77&#10;&#9;&#9;&#9;&#9;C513.31,734.25,512.1,734.71,510.7,734.71z M515.87,745.51v30.22c0,2.09-0.5,3.68-1.49,4.75c-1,1.07-2.26,1.61-3.79,1.61&#10;&#9;&#9;&#9;&#9;c-1.53,0-2.78-0.55-3.73-1.65c-0.96-1.1-1.44-2.67-1.44-4.71v-29.91c0-2.07,0.48-3.63,1.44-4.67c0.96-1.05,2.2-1.57,3.73-1.57&#10;&#9;&#9;&#9;&#9;c1.53,0,2.8,0.52,3.79,1.57C515.37,742.19,515.87,743.64,515.87,745.51z" class="st3"/>
			<path d="M565.81,760.83c0,3.12-0.49,5.99-1.46,8.62c-0.97,2.63-2.37,4.89-4.21,6.78c-1.84,1.89-4.03,3.34-6.59,4.35&#10;&#9;&#9;&#9;&#9;c-2.55,1.01-5.43,1.51-8.62,1.51c-3.17,0-6.01-0.51-8.54-1.53c-2.53-1.02-4.72-2.48-6.57-4.39c-1.85-1.9-3.26-4.15-4.21-6.74&#10;&#9;&#9;&#9;&#9;c-0.96-2.59-1.44-5.46-1.44-8.6c0-3.17,0.48-6.06,1.46-8.69c0.97-2.63,2.36-4.88,4.17-6.74c1.81-1.86,4.01-3.3,6.59-4.31&#10;&#9;&#9;&#9;&#9;c2.58-1.01,5.43-1.51,8.54-1.51c3.16,0,6.04,0.51,8.62,1.53c2.58,1.02,4.79,2.48,6.63,4.37c1.84,1.89,3.24,4.14,4.19,6.74&#10;&#9;&#9;&#9;&#9;C565.33,754.81,565.81,757.69,565.81,760.83z M555.32,760.83c0-4.26-0.94-7.58-2.82-9.96c-1.88-2.37-4.4-3.56-7.56-3.56&#10;&#9;&#9;&#9;&#9;c-2.04,0-3.84,0.53-5.4,1.59c-1.56,1.06-2.76,2.62-3.6,4.69c-0.84,2.07-1.26,4.48-1.26,7.24c0,2.73,0.42,5.12,1.24,7.16&#10;&#9;&#9;&#9;&#9;c0.83,2.04,2.02,3.61,3.56,4.69c1.54,1.09,3.36,1.63,5.46,1.63c3.16,0,5.69-1.19,7.56-3.58&#10;&#9;&#9;&#9;&#9;C554.38,768.34,555.32,765.04,555.32,760.83z" class="st3"/>
			<path d="M594.84,775.15v-44.24c0-2.3,0.52-4.02,1.57-5.17c1.05-1.15,2.4-1.72,4.06-1.72c1.71,0,3.1,0.57,4.15,1.7&#10;&#9;&#9;&#9;&#9;c1.06,1.14,1.59,2.87,1.59,5.19v44.24c0,2.32-0.53,4.06-1.59,5.21c-1.06,1.15-2.45,1.72-4.15,1.72c-1.63,0-2.98-0.58-4.04-1.74&#10;&#9;&#9;&#9;&#9;C595.37,779.18,594.84,777.45,594.84,775.15z" class="st3"/>
			<path d="M627.71,745.35v1.26c1.84-2.43,3.85-4.21,6.03-5.34c2.18-1.14,4.69-1.7,7.53-1.7c2.76,0,5.22,0.6,7.39,1.8&#10;&#9;&#9;&#9;&#9;c2.17,1.2,3.79,2.9,4.86,5.09c0.69,1.28,1.14,2.66,1.34,4.14c0.2,1.48,0.31,3.37,0.31,5.67v19.46c0,2.09-0.48,3.68-1.44,4.75&#10;&#9;&#9;&#9;&#9;c-0.96,1.07-2.2,1.61-3.73,1.61c-1.56,0-2.82-0.55-3.79-1.65c-0.97-1.1-1.46-2.67-1.46-4.71V758.3c0-3.45-0.48-6.08-1.44-7.91&#10;&#9;&#9;&#9;&#9;c-0.96-1.83-2.87-2.74-5.73-2.74c-1.86,0-3.56,0.56-5.09,1.67c-1.53,1.11-2.66,2.64-3.37,4.58c-0.51,1.56-0.77,4.47-0.77,8.73&#10;&#9;&#9;&#9;&#9;v13.1c0,2.12-0.49,3.71-1.47,4.77c-0.98,1.06-2.25,1.59-3.81,1.59c-1.51,0-2.75-0.55-3.72-1.65c-0.97-1.1-1.46-2.67-1.46-4.71&#10;&#9;&#9;&#9;&#9;v-30.22c0-1.99,0.43-3.48,1.3-4.46c0.87-0.98,2.05-1.47,3.56-1.47c0.92,0,1.75,0.22,2.49,0.65c0.74,0.43,1.33,1.09,1.78,1.95&#10;&#9;&#9;&#9;&#9;C627.48,743.04,627.71,744.1,627.71,745.35z" class="st3"/>
			<path d="M664.74,740.49h2.49v-3.14c0-3.27,0.42-5.87,1.24-7.79c0.83-1.93,2.23-3.33,4.21-4.21&#10;&#9;&#9;&#9;&#9;c1.98-0.88,4.69-1.32,8.14-1.32c6.1,0,9.15,1.49,9.15,4.48c0,0.97-0.32,1.8-0.96,2.49c-0.64,0.69-1.39,1.03-2.26,1.03&#10;&#9;&#9;&#9;&#9;c-0.41,0-1.11-0.08-2.11-0.23c-1-0.15-1.84-0.23-2.53-0.23c-1.89,0-3.1,0.56-3.64,1.67c-0.54,1.11-0.8,2.7-0.8,4.77v2.49h2.57&#10;&#9;&#9;&#9;&#9;c3.98,0,5.97,1.2,5.97,3.6c0,1.71-0.53,2.8-1.59,3.26c-1.06,0.46-2.52,0.69-4.39,0.69h-2.57v27.69c0,2.07-0.49,3.65-1.47,4.73&#10;&#9;&#9;&#9;&#9;c-0.98,1.09-2.25,1.63-3.81,1.63c-1.48,0-2.71-0.54-3.7-1.63c-0.98-1.08-1.48-2.66-1.48-4.73v-27.69h-2.87&#10;&#9;&#9;&#9;&#9;c-1.56,0-2.76-0.35-3.6-1.05c-0.84-0.7-1.26-1.61-1.26-2.74C659.5,741.74,661.25,740.49,664.74,740.49z" class="st3"/>
			<path d="M717.1,776.19c-2.53,1.97-4.97,3.44-7.33,4.42c-2.36,0.98-5.01,1.47-7.95,1.47c-2.68,0-5.04-0.53-7.07-1.59&#10;&#9;&#9;&#9;&#9;c-2.03-1.06-3.6-2.5-4.69-4.31c-1.1-1.81-1.65-3.78-1.65-5.9c0-2.86,0.91-5.3,2.72-7.32c1.81-2.02,4.3-3.37,7.47-4.06&#10;&#9;&#9;&#9;&#9;c0.66-0.15,2.31-0.5,4.94-1.03c2.63-0.54,4.88-1.03,6.76-1.47c1.88-0.45,3.91-0.99,6.11-1.63c-0.13-2.76-0.68-4.78-1.67-6.07&#10;&#9;&#9;&#9;&#9;c-0.98-1.29-3.02-1.93-6.11-1.93c-2.66,0-4.65,0.37-5.99,1.11c-1.34,0.74-2.49,1.85-3.45,3.33c-0.96,1.48-1.64,2.46-2.03,2.93&#10;&#9;&#9;&#9;&#9;c-0.4,0.47-1.24,0.71-2.55,0.71c-1.17,0-2.19-0.38-3.05-1.13c-0.86-0.75-1.28-1.72-1.28-2.89c0-1.84,0.65-3.63,1.95-5.36&#10;&#9;&#9;&#9;&#9;c1.3-1.74,3.33-3.17,6.09-4.29c2.76-1.12,6.19-1.69,10.3-1.69c4.6,0,8.21,0.54,10.84,1.63c2.63,1.09,4.49,2.8,5.57,5.15&#10;&#9;&#9;&#9;&#9;c1.08,2.35,1.63,5.46,1.63,9.35c0,2.45-0.01,4.53-0.02,6.24c-0.01,1.71-0.03,3.61-0.06,5.71c0,1.97,0.33,4.02,0.98,6.15&#10;&#9;&#9;&#9;&#9;c0.65,2.13,0.98,3.5,0.98,4.12c0,1.07-0.5,2.05-1.51,2.93c-1.01,0.88-2.15,1.32-3.43,1.32c-1.07,0-2.13-0.5-3.18-1.51&#10;&#9;&#9;&#9;&#9;C719.39,779.56,718.28,778.1,717.1,776.19z M716.41,761.06c-1.53,0.56-3.76,1.16-6.68,1.78c-2.92,0.63-4.95,1.09-6.07,1.38&#10;&#9;&#9;&#9;&#9;c-1.12,0.29-2.2,0.87-3.22,1.72c-1.02,0.86-1.53,2.05-1.53,3.58c0,1.58,0.6,2.93,1.8,4.04c1.2,1.11,2.77,1.67,4.71,1.67&#10;&#9;&#9;&#9;&#9;c2.07,0,3.98-0.45,5.73-1.36c1.75-0.91,3.03-2.07,3.85-3.5c0.94-1.58,1.42-4.19,1.42-7.81V761.06z" class="st3"/>
			<path d="M746.79,745.35v1.26c1.84-2.43,3.85-4.21,6.03-5.34c2.18-1.14,4.69-1.7,7.53-1.7c2.76,0,5.22,0.6,7.39,1.8&#10;&#9;&#9;&#9;&#9;c2.17,1.2,3.79,2.9,4.86,5.09c0.69,1.28,1.14,2.66,1.34,4.14c0.2,1.48,0.31,3.37,0.31,5.67v19.46c0,2.09-0.48,3.68-1.44,4.75&#10;&#9;&#9;&#9;&#9;c-0.96,1.07-2.2,1.61-3.73,1.61c-1.56,0-2.82-0.55-3.79-1.65c-0.97-1.1-1.46-2.67-1.46-4.71V758.3c0-3.45-0.48-6.08-1.44-7.91&#10;&#9;&#9;&#9;&#9;c-0.96-1.83-2.87-2.74-5.73-2.74c-1.86,0-3.56,0.56-5.09,1.67c-1.53,1.11-2.66,2.64-3.37,4.58c-0.51,1.56-0.77,4.47-0.77,8.73&#10;&#9;&#9;&#9;&#9;v13.1c0,2.12-0.49,3.71-1.47,4.77c-0.98,1.06-2.25,1.59-3.81,1.59c-1.51,0-2.75-0.55-3.72-1.65c-0.97-1.1-1.46-2.67-1.46-4.71&#10;&#9;&#9;&#9;&#9;v-30.22c0-1.99,0.43-3.48,1.3-4.46c0.87-0.98,2.05-1.47,3.56-1.47c0.92,0,1.75,0.22,2.49,0.65c0.74,0.43,1.33,1.09,1.78,1.95&#10;&#9;&#9;&#9;&#9;C746.56,743.04,746.79,744.1,746.79,745.35z" class="st3"/>
			<path d="M785.24,740.49h1.15v-6.28c0-1.69,0.04-3.01,0.13-3.96c0.09-0.96,0.34-1.78,0.75-2.47&#10;&#9;&#9;&#9;&#9;c0.41-0.71,1-1.3,1.76-1.74c0.77-0.45,1.62-0.67,2.57-0.67c1.33,0,2.53,0.5,3.6,1.49c0.71,0.66,1.17,1.47,1.36,2.43&#10;&#9;&#9;&#9;&#9;c0.19,0.96,0.29,2.32,0.29,4.08v7.12h3.83c1.48,0,2.61,0.35,3.39,1.05c0.78,0.7,1.17,1.6,1.17,2.7c0,1.4-0.55,2.39-1.67,2.95&#10;&#9;&#9;&#9;&#9;c-1.11,0.56-2.7,0.84-4.77,0.84h-1.95v19.23c0,1.63,0.06,2.89,0.17,3.77c0.12,0.88,0.42,1.6,0.92,2.15&#10;&#9;&#9;&#9;&#9;c0.5,0.55,1.31,0.82,2.43,0.82c0.61,0,1.44-0.11,2.49-0.33c1.05-0.22,1.86-0.33,2.45-0.33c0.84,0,1.6,0.34,2.28,1.01&#10;&#9;&#9;&#9;&#9;c0.68,0.68,1.01,1.51,1.01,2.51c0,1.69-0.92,2.98-2.76,3.87c-1.84,0.89-4.48,1.34-7.93,1.34c-3.27,0-5.75-0.55-7.43-1.65&#10;&#9;&#9;&#9;&#9;c-1.69-1.1-2.79-2.62-3.31-4.56c-0.52-1.94-0.79-4.53-0.79-7.77v-20.07h-1.38c-1.51,0-2.66-0.36-3.45-1.07&#10;&#9;&#9;&#9;&#9;c-0.79-0.71-1.19-1.62-1.19-2.72c0-1.1,0.42-2,1.24-2.7C782.45,740.84,783.66,740.49,785.24,740.49z" class="st3"/>
			<path d="M817.72,734.71c-1.46,0-2.7-0.45-3.73-1.34c-1.04-0.89-1.55-2.16-1.55-3.79c0-1.48,0.53-2.7,1.59-3.66&#10;&#9;&#9;&#9;&#9;c1.06-0.96,2.29-1.44,3.7-1.44c1.35,0,2.55,0.43,3.6,1.3c1.05,0.87,1.57,2.13,1.57,3.79c0,1.61-0.51,2.87-1.53,3.77&#10;&#9;&#9;&#9;&#9;C820.34,734.25,819.12,734.71,817.72,734.71z M822.89,745.51v30.22c0,2.09-0.5,3.68-1.49,4.75c-1,1.07-2.26,1.61-3.79,1.61&#10;&#9;&#9;&#9;&#9;c-1.53,0-2.78-0.55-3.73-1.65c-0.96-1.1-1.44-2.67-1.44-4.71v-29.91c0-2.07,0.48-3.63,1.44-4.67c0.96-1.05,2.2-1.57,3.73-1.57&#10;&#9;&#9;&#9;&#9;c1.53,0,2.8,0.52,3.79,1.57C822.39,742.19,822.89,743.64,822.89,745.51z" class="st3"/>
			<path d="M833.69,775.73v-45.35c0-2.09,0.47-3.68,1.4-4.75c0.93-1.07,2.19-1.61,3.77-1.61c1.58,0,2.86,0.53,3.83,1.59&#10;&#9;&#9;&#9;&#9;c0.97,1.06,1.46,2.65,1.46,4.77v45.35c0,2.12-0.49,3.71-1.48,4.77c-0.98,1.06-2.25,1.59-3.81,1.59c-1.53,0-2.78-0.55-3.73-1.65&#10;&#9;&#9;&#9;&#9;C834.17,779.34,833.69,777.77,833.69,775.73z" class="st3"/>
			<path d="M199.94,885.01l-4.65-12.22h-39.58l-4.65,12.48c-1.82,4.87-3.36,8.16-4.65,9.86&#10;&#9;&#9;&#9;&#9;c-1.28,1.7-3.39,2.56-6.31,2.56c-2.48,0-4.67-0.91-6.57-2.72c-1.9-1.82-2.86-3.87-2.86-6.18c0-1.33,0.22-2.7,0.66-4.12&#10;&#9;&#9;&#9;&#9;s1.17-3.39,2.19-5.91l24.9-63.22c0.71-1.82,1.56-3.99,2.56-6.54c1-2.54,2.06-4.66,3.19-6.34c1.13-1.68,2.61-3.04,4.45-4.08&#10;&#9;&#9;&#9;&#9;c1.84-1.04,4.11-1.56,6.81-1.56c2.74,0,5.03,0.52,6.87,1.56c1.84,1.04,3.32,2.38,4.45,4.02c1.13,1.64,2.08,3.4,2.86,5.28&#10;&#9;&#9;&#9;&#9;c0.77,1.88,1.76,4.39,2.95,7.54L218,878.24c1.99,4.78,2.99,8.26,2.99,10.43c0,2.26-0.94,4.33-2.82,6.21&#10;&#9;&#9;&#9;&#9;c-1.88,1.88-4.15,2.82-6.81,2.82c-1.55,0-2.88-0.28-3.98-0.83c-1.11-0.56-2.04-1.31-2.79-2.26c-0.75-0.95-1.56-2.41-2.42-4.38&#10;&#9;&#9;&#9;&#9;C201.3,888.25,200.56,886.51,199.94,885.01z M160.89,857.98h29.08l-14.68-40.17L160.89,857.98z" class="st3"/>
			<path d="M281.28,887.47v-2.32c-2.17,2.74-4.45,5.05-6.84,6.91c-2.39,1.86-5,3.24-7.84,4.15&#10;&#9;&#9;&#9;&#9;c-2.83,0.91-6.06,1.36-9.69,1.36c-4.38,0-8.31-0.91-11.79-2.72c-3.48-1.82-6.16-4.32-8.07-7.5c-2.26-3.85-3.39-9.38-3.39-16.6&#10;&#9;&#9;&#9;&#9;v-35.92c0-3.63,0.82-6.34,2.46-8.14c1.64-1.79,3.81-2.69,6.51-2.69c2.74,0,4.96,0.91,6.64,2.72s2.52,4.52,2.52,8.1v29.02&#10;&#9;&#9;&#9;&#9;c0,4.21,0.35,7.74,1.06,10.59c0.71,2.85,1.98,5.09,3.82,6.7c1.84,1.62,4.33,2.42,7.47,2.42c3.05,0,5.93-0.91,8.63-2.72&#10;&#9;&#9;&#9;&#9;c2.7-1.82,4.67-4.18,5.91-7.11c1.02-2.57,1.53-8.19,1.53-16.87v-22.05c0-3.59,0.84-6.29,2.52-8.1c1.68-1.82,3.87-2.72,6.57-2.72&#10;&#9;&#9;&#9;&#9;s4.87,0.9,6.51,2.69c1.64,1.79,2.46,4.51,2.46,8.14v52.52c0,3.45-0.79,6.04-2.36,7.77c-1.57,1.73-3.6,2.59-6.08,2.59&#10;&#9;&#9;&#9;&#9;s-4.53-0.9-6.14-2.69C282.09,893.21,281.28,890.7,281.28,887.47z" class="st3"/>
			<path d="M316.34,886.67v-78.62c0-3.63,0.81-6.37,2.42-8.23c1.62-1.86,3.8-2.79,6.54-2.79s4.96,0.92,6.64,2.76&#10;&#9;&#9;&#9;&#9;c1.68,1.84,2.52,4.59,2.52,8.27v78.62c0,3.67-0.85,6.43-2.56,8.27c-1.7,1.84-3.91,2.76-6.61,2.76c-2.66,0-4.82-0.95-6.47-2.86&#10;&#9;&#9;&#9;&#9;C317.17,892.93,316.34,890.21,316.34,886.67z" class="st3"/>
			<path d="M399.01,887.47c-4.38,3.41-8.62,5.97-12.72,7.67c-4.09,1.7-8.69,2.56-13.78,2.56&#10;&#9;&#9;&#9;&#9;c-4.65,0-8.73-0.92-12.25-2.76c-3.52-1.84-6.23-4.33-8.13-7.47c-1.9-3.14-2.86-6.55-2.86-10.23c0-4.96,1.57-9.19,4.71-12.68&#10;&#9;&#9;&#9;&#9;s7.46-5.84,12.95-7.04c1.15-0.27,4.01-0.86,8.57-1.79c4.56-0.93,8.47-1.78,11.72-2.56c3.26-0.77,6.79-1.72,10.59-2.82&#10;&#9;&#9;&#9;&#9;c-0.22-4.78-1.18-8.29-2.89-10.53c-1.7-2.23-5.23-3.35-10.59-3.35c-4.6,0-8.07,0.64-10.39,1.93c-2.32,1.28-4.31,3.21-5.98,5.78&#10;&#9;&#9;&#9;&#9;c-1.66,2.57-2.83,4.26-3.52,5.08c-0.69,0.82-2.16,1.23-4.42,1.23c-2.04,0-3.8-0.65-5.28-1.96c-1.48-1.31-2.23-2.98-2.23-5.01&#10;&#9;&#9;&#9;&#9;c0-3.19,1.13-6.29,3.39-9.3c2.26-3.01,5.78-5.49,10.56-7.44s10.74-2.92,17.86-2.92c7.97,0,14.23,0.94,18.79,2.82&#10;&#9;&#9;&#9;&#9;c4.56,1.88,7.78,4.86,9.66,8.93c1.88,4.07,2.82,9.47,2.82,16.2c0,4.25-0.01,7.86-0.03,10.82c-0.02,2.97-0.06,6.26-0.1,9.89&#10;&#9;&#9;&#9;&#9;c0,3.41,0.56,6.96,1.69,10.66c1.13,3.7,1.69,6.08,1.69,7.14c0,1.86-0.88,3.55-2.62,5.08c-1.75,1.53-3.73,2.29-5.94,2.29&#10;&#9;&#9;&#9;&#9;c-1.86,0-3.7-0.88-5.51-2.62C402.98,893.32,401.05,890.79,399.01,887.47z M397.82,861.24c-2.66,0.97-6.52,2-11.59,3.09&#10;&#9;&#9;&#9;&#9;c-5.07,1.08-8.58,1.88-10.53,2.39s-3.81,1.51-5.58,2.99c-1.77,1.48-2.66,3.55-2.66,6.21c0,2.74,1.04,5.08,3.12,7.01&#10;&#9;&#9;&#9;&#9;c2.08,1.92,4.8,2.89,8.17,2.89c3.59,0,6.89-0.78,9.93-2.36c3.03-1.57,5.26-3.6,6.67-6.08c1.64-2.74,2.46-7.26,2.46-13.55V861.24z" class="st3"/>
			<path d="M502.14,881.36l-15.6-62.02v67.2c0,3.72-0.83,6.51-2.49,8.37c-1.66,1.86-3.86,2.79-6.61,2.79&#10;&#9;&#9;&#9;&#9;c-2.66,0-4.83-0.92-6.51-2.76c-1.68-1.84-2.52-4.64-2.52-8.4v-77.03c0-4.25,1.11-7.12,3.32-8.6c2.21-1.48,5.2-2.22,8.96-2.22&#10;&#9;&#9;&#9;&#9;h6.11c3.67,0,6.34,0.33,8,1c1.66,0.66,2.89,1.86,3.68,3.59c0.8,1.73,1.7,4.54,2.72,8.43l14.14,53.32l14.14-53.32&#10;&#9;&#9;&#9;&#9;c1.02-3.9,1.93-6.71,2.72-8.43c0.8-1.73,2.03-2.92,3.68-3.59c1.66-0.66,4.33-1,8-1h6.11c3.76,0,6.75,0.74,8.96,2.22&#10;&#9;&#9;&#9;&#9;c2.21,1.48,3.32,4.35,3.32,8.6v77.03c0,3.72-0.83,6.51-2.49,8.37c-1.66,1.86-3.88,2.79-6.67,2.79c-2.61,0-4.76-0.93-6.44-2.79&#10;&#9;&#9;&#9;&#9;c-1.68-1.86-2.52-4.65-2.52-8.37v-67.2l-15.6,62.02c-1.02,4.03-1.85,6.98-2.49,8.87c-0.64,1.88-1.83,3.6-3.55,5.15&#10;&#9;&#9;&#9;&#9;c-1.73,1.55-4.12,2.32-7.17,2.32c-2.3,0-4.25-0.5-5.84-1.49c-1.59-1-2.83-2.27-3.72-3.82c-0.89-1.55-1.58-3.26-2.09-5.15&#10;&#9;&#9;&#9;&#9;C503.19,885.35,502.67,883.39,502.14,881.36z" class="st3"/>
			<path d="M627.11,887.47c-4.38,3.41-8.62,5.97-12.72,7.67c-4.09,1.7-8.69,2.56-13.78,2.56&#10;&#9;&#9;&#9;&#9;c-4.65,0-8.73-0.92-12.25-2.76c-3.52-1.84-6.23-4.33-8.13-7.47c-1.9-3.14-2.86-6.55-2.86-10.23c0-4.96,1.57-9.19,4.71-12.68&#10;&#9;&#9;&#9;&#9;s7.46-5.84,12.95-7.04c1.15-0.27,4.01-0.86,8.57-1.79c4.56-0.93,8.47-1.78,11.72-2.56c3.26-0.77,6.79-1.72,10.59-2.82&#10;&#9;&#9;&#9;&#9;c-0.22-4.78-1.18-8.29-2.89-10.53c-1.7-2.23-5.23-3.35-10.59-3.35c-4.6,0-8.07,0.64-10.39,1.93c-2.32,1.28-4.31,3.21-5.98,5.78&#10;&#9;&#9;&#9;&#9;c-1.66,2.57-2.83,4.26-3.52,5.08c-0.69,0.82-2.16,1.23-4.42,1.23c-2.04,0-3.8-0.65-5.28-1.96c-1.48-1.31-2.23-2.98-2.23-5.01&#10;&#9;&#9;&#9;&#9;c0-3.19,1.13-6.29,3.39-9.3c2.26-3.01,5.78-5.49,10.56-7.44s10.74-2.92,17.86-2.92c7.97,0,14.23,0.94,18.79,2.82&#10;&#9;&#9;&#9;&#9;c4.56,1.88,7.78,4.86,9.66,8.93c1.88,4.07,2.82,9.47,2.82,16.2c0,4.25-0.01,7.86-0.03,10.82c-0.02,2.97-0.06,6.26-0.1,9.89&#10;&#9;&#9;&#9;&#9;c0,3.41,0.56,6.96,1.69,10.66c1.13,3.7,1.69,6.08,1.69,7.14c0,1.86-0.88,3.55-2.62,5.08c-1.75,1.53-3.73,2.29-5.94,2.29&#10;&#9;&#9;&#9;&#9;c-1.86,0-3.7-0.88-5.51-2.62C631.07,893.32,629.14,890.79,627.11,887.47z M625.91,861.24c-2.66,0.97-6.52,2-11.59,3.09&#10;&#9;&#9;&#9;&#9;c-5.07,1.08-8.58,1.88-10.53,2.39s-3.81,1.51-5.58,2.99c-1.77,1.48-2.66,3.55-2.66,6.21c0,2.74,1.04,5.08,3.12,7.01&#10;&#9;&#9;&#9;&#9;c2.08,1.92,4.8,2.89,8.17,2.89c3.59,0,6.89-0.78,9.93-2.36s5.26-3.6,6.67-6.08c1.64-2.74,2.46-7.26,2.46-13.55V861.24z&#10;&#9;&#9;&#9;&#9; M615.02,797.95h8.96c2.26,0,3.39,0.33,3.39,1c0,0.35-1.24,1.79-3.72,4.32c-2.48,2.52-4.98,4.94-7.5,7.24&#10;&#9;&#9;&#9;&#9;c-2.52,2.3-4.27,3.7-5.25,4.18c-2.52,1.28-5.22,1.93-8.1,1.93c-1.9,0-2.86-0.55-2.86-1.66c0-0.75,0.58-2.06,1.73-3.92l2.99-5.58&#10;&#9;&#9;&#9;&#9;c1.73-3.23,3.23-5.29,4.52-6.18C610.46,798.4,612.41,797.95,615.02,797.95z" class="st3"/>
			<path d="M728.77,837.27v52.66c0,6.02-0.64,11.2-1.93,15.54c-1.28,4.34-3.34,7.92-6.18,10.76s-6.54,4.94-11.12,6.31&#10;&#9;&#9;&#9;&#9;c-4.58,1.37-10.28,2.06-17.1,2.06c-6.24,0-11.82-0.88-16.73-2.62c-4.91-1.75-8.7-4.01-11.35-6.77c-2.66-2.77-3.98-5.61-3.98-8.53&#10;&#9;&#9;&#9;&#9;c0-2.21,0.75-4.02,2.26-5.41c1.51-1.4,3.32-2.09,5.45-2.09c2.66,0,4.98,1.17,6.97,3.52c0.97,1.2,1.98,2.4,3.02,3.62&#10;&#9;&#9;&#9;&#9;c1.04,1.22,2.19,2.26,3.45,3.12c1.26,0.86,2.78,1.51,4.55,1.93c1.77,0.42,3.81,0.63,6.11,0.63c4.69,0,8.33-0.65,10.92-1.96&#10;&#9;&#9;&#9;&#9;c2.59-1.31,4.4-3.13,5.45-5.48c1.04-2.35,1.65-4.86,1.83-7.54c0.18-2.68,0.31-6.98,0.4-12.92c-2.79,3.9-6.01,6.86-9.66,8.9&#10;&#9;&#9;&#9;&#9;c-3.65,2.04-8,3.05-13.05,3.05c-6.06,0-11.37-1.55-15.9-4.65c-4.54-3.1-8.02-7.44-10.46-13.01c-2.43-5.58-3.65-12.02-3.65-19.32&#10;&#9;&#9;&#9;&#9;c0-5.45,0.74-10.36,2.22-14.74c1.48-4.38,3.6-8.08,6.34-11.09s5.91-5.28,9.5-6.81c3.59-1.53,7.53-2.29,11.82-2.29&#10;&#9;&#9;&#9;&#9;c5.14,0,9.58,0.99,13.35,2.95c3.76,1.97,7.26,5.06,10.49,9.26v-2.46c0-3.14,0.77-5.58,2.32-7.3c1.55-1.73,3.54-2.59,5.98-2.59&#10;&#9;&#9;&#9;&#9;c3.5,0,5.82,1.14,6.97,3.42S728.77,832.97,728.77,837.27z M676.25,860.24c0,7.35,1.6,12.9,4.82,16.67&#10;&#9;&#9;&#9;&#9;c3.21,3.76,7.36,5.64,12.45,5.64c3.01,0,5.85-0.81,8.53-2.42c2.68-1.62,4.86-4.05,6.54-7.3c1.68-3.26,2.52-7.21,2.52-11.85&#10;&#9;&#9;&#9;&#9;c0-7.39-1.63-13.15-4.88-17.26c-3.25-4.12-7.54-6.18-12.85-6.18c-5.18,0-9.33,1.97-12.45,5.91&#10;&#9;&#9;&#9;&#9;C677.81,847.38,676.25,852.98,676.25,860.24z" class="st3"/>
			<path d="M756.26,815.55c-2.52,0-4.68-0.77-6.48-2.32c-1.79-1.55-2.69-3.74-2.69-6.57c0-2.57,0.92-4.68,2.76-6.34&#10;&#9;&#9;&#9;&#9;c1.84-1.66,3.97-2.49,6.41-2.49c2.35,0,4.43,0.75,6.24,2.26s2.72,3.7,2.72,6.57c0,2.79-0.89,4.97-2.66,6.54&#10;&#9;&#9;&#9;&#9;S758.7,815.55,756.26,815.55z M765.23,834.28v52.39c0,3.63-0.86,6.37-2.59,8.23c-1.73,1.86-3.92,2.79-6.57,2.79&#10;&#9;&#9;&#9;&#9;c-2.66,0-4.82-0.95-6.47-2.86c-1.66-1.9-2.49-4.63-2.49-8.17v-51.86c0-3.59,0.83-6.29,2.49-8.1c1.66-1.82,3.82-2.72,6.47-2.72&#10;&#9;&#9;&#9;&#9;c2.66,0,4.85,0.91,6.57,2.72S765.23,831.05,765.23,834.28z" class="st3"/>
			<path d="M848.96,875.25c0,2.26-0.68,4.67-2.03,7.24s-3.41,5.01-6.17,7.34c-2.77,2.32-6.25,4.19-10.46,5.61&#10;&#9;&#9;&#9;&#9;c-4.21,1.42-8.94,2.12-14.21,2.12c-11.2,0-19.94-3.26-26.23-9.8c-6.29-6.53-9.43-15.28-9.43-26.26c0-7.44,1.44-14.01,4.32-19.72&#10;&#9;&#9;&#9;&#9;c2.88-5.71,7.04-10.13,12.48-13.25c5.45-3.12,11.95-4.68,19.52-4.68c4.69,0,9,0.69,12.91,2.06c3.92,1.37,7.24,3.14,9.96,5.31&#10;&#9;&#9;&#9;&#9;c2.72,2.17,4.8,4.48,6.24,6.94c1.44,2.46,2.16,4.75,2.16,6.87c0,2.17-0.81,4.01-2.42,5.51s-3.57,2.26-5.88,2.26&#10;&#9;&#9;&#9;&#9;c-1.51,0-2.76-0.39-3.75-1.16c-1-0.77-2.11-2.02-3.35-3.75c-2.21-3.36-4.53-5.89-6.94-7.57c-2.41-1.68-5.48-2.52-9.2-2.52&#10;&#9;&#9;&#9;&#9;c-5.36,0-9.67,2.09-12.95,6.27c-3.28,4.19-4.91,9.91-4.91,17.17c0,3.41,0.42,6.54,1.26,9.4c0.84,2.86,2.06,5.29,3.65,7.3&#10;&#9;&#9;&#9;&#9;c1.59,2.02,3.52,3.54,5.78,4.58c2.26,1.04,4.74,1.56,7.44,1.56c3.63,0,6.74-0.84,9.33-2.52c2.59-1.68,4.88-4.25,6.87-7.7&#10;&#9;&#9;&#9;&#9;c1.11-2.04,2.3-3.63,3.59-4.78c1.28-1.15,2.86-1.73,4.71-1.73c2.21,0,4.05,0.84,5.51,2.52&#10;&#9;&#9;&#9;&#9;C848.23,871.55,848.96,873.34,848.96,875.25z" class="st3"/>
			<path d="M910.58,887.47c-4.38,3.41-8.62,5.97-12.72,7.67c-4.09,1.7-8.69,2.56-13.78,2.56&#10;&#9;&#9;&#9;&#9;c-4.65,0-8.73-0.92-12.25-2.76c-3.52-1.84-6.23-4.33-8.13-7.47s-2.86-6.55-2.86-10.23c0-4.96,1.57-9.19,4.71-12.68&#10;&#9;&#9;&#9;&#9;s7.46-5.84,12.95-7.04c1.15-0.27,4.01-0.86,8.57-1.79c4.56-0.93,8.47-1.78,11.72-2.56c3.26-0.77,6.79-1.72,10.59-2.82&#10;&#9;&#9;&#9;&#9;c-0.22-4.78-1.18-8.29-2.89-10.53c-1.7-2.23-5.23-3.35-10.59-3.35c-4.6,0-8.07,0.64-10.39,1.93c-2.32,1.28-4.31,3.21-5.98,5.78&#10;&#9;&#9;&#9;&#9;c-1.66,2.57-2.83,4.26-3.52,5.08c-0.69,0.82-2.16,1.23-4.42,1.23c-2.04,0-3.8-0.65-5.28-1.96c-1.48-1.31-2.23-2.98-2.23-5.01&#10;&#9;&#9;&#9;&#9;c0-3.19,1.13-6.29,3.39-9.3c2.26-3.01,5.78-5.49,10.56-7.44s10.74-2.92,17.86-2.92c7.97,0,14.23,0.94,18.79,2.82&#10;&#9;&#9;&#9;&#9;c4.56,1.88,7.78,4.86,9.66,8.93c1.88,4.07,2.82,9.47,2.82,16.2c0,4.25-0.01,7.86-0.03,10.82c-0.02,2.97-0.06,6.26-0.1,9.89&#10;&#9;&#9;&#9;&#9;c0,3.41,0.56,6.96,1.69,10.66c1.13,3.7,1.69,6.08,1.69,7.14c0,1.86-0.88,3.55-2.62,5.08c-1.75,1.53-3.73,2.29-5.94,2.29&#10;&#9;&#9;&#9;&#9;c-1.86,0-3.7-0.88-5.51-2.62C914.54,893.32,912.62,890.79,910.58,887.47z M909.39,861.24c-2.66,0.97-6.52,2-11.59,3.09&#10;&#9;&#9;&#9;&#9;c-5.07,1.08-8.58,1.88-10.53,2.39s-3.81,1.51-5.58,2.99c-1.77,1.48-2.66,3.55-2.66,6.21c0,2.74,1.04,5.08,3.12,7.01&#10;&#9;&#9;&#9;&#9;c2.08,1.92,4.8,2.89,8.17,2.89c3.59,0,6.89-0.78,9.93-2.36s5.26-3.6,6.67-6.08c1.64-2.74,2.46-7.26,2.46-13.55V861.24z" class="st3"/>
		</g>
	</g>
</svg>